<?xml version="1.0" standalone="no"?><!DOCTYPE svg PUBLIC "-//W3C//DTD SVG 1.1//EN" "http://www.w3.org/Graphics/SVG/1.1/DTD/svg11.dtd"><svg t="1498230520970" class="icon" style="" viewBox="0 0 1024 1024" version="1.1" xmlns="http://www.w3.org/2000/svg" p-id="1558" xmlns:xlink="http://www.w3.org/1999/xlink" width="32" height="32"><defs><style type="text/css"></style></defs><path d="M241.371429 403.748571v39.009524l261.851428 107.276191c10.24 4.388571 15.60381 2.925714 18.529524 1.950476 2.925714-0.975238 260.87619-108.739048 260.87619-108.739048v-39.009524l-267.702857 111.664762-273.554285-112.152381z" fill="" p-id="1559"></path><path d="M512 21.942857C242.834286 21.942857 24.380952 240.39619 24.380952 509.561905s218.453333 487.619048 487.619048 487.619047 487.619048-218.453333 487.619048-487.619047S781.165714 21.942857 512 21.942857zM818.712381 682.666667c0 25.84381-20.967619 46.811429-46.811429 46.811428H252.099048c-25.84381 0-46.811429-20.967619-46.811429-46.811428V336.457143c0-25.84381 20.967619-46.811429 46.811429-46.811429h519.801904c25.84381 0 46.811429 20.967619 46.811429 46.811429v346.209524z" fill="" p-id="1560"></path></svg>